<svg xmlns="http://www.w3.org/2000/svg"  viewBox="0 0 48 48" width="48px" height="48px"><g data-name="Copy Writing"><rect width="46" height="8" x="1" y="1" fill="#7c7d7d"/><path fill="#919191" d="M47,1V7H10A6,6,0,0,1,4,1Z"/><rect width="46" height="30" x="1" y="9" fill="#dad7e5"/><path fill="#edebf2" d="M47,9V37H32A28,28,0,0,1,4,9Z"/><rect width="6" height="22" x="36" y="20" fill="#fc6"/><path fill="#ffde76" d="M42,20c0,20.82-.1,20,0,20a4,4,0,0,1-4-4V20Z"/><path fill="#db5669" d="M42,17v3H36c0-2.79-.25-4,.88-5.12A3,3,0,0,1,42,17Z"/><path fill="#f26674" d="M42,17v1H41a3,3,0,0,1-2.87-3.87A3,3,0,0,1,42,17Z"/><path fill="#f6ccaf" d="M42,42l-3,5-3-5Z"/><polygon fill="#ffdec7" points="42 42 39.82 45.66 37.6 42 42 42"/><rect width="14" height="8" x="6" y="14" fill="#6fabe6"/><path fill="#82bcf4" d="M20,14v6H15a6,6,0,0,1-6-6Z"/><path fill="#919191" d="M32,17H24a1,1,0,0,1,0-2h8A1,1,0,0,1,32,17Z"/><path fill="#919191" d="M32,21H24a1,1,0,0,1,0-2h8A1,1,0,0,1,32,21Z"/><path fill="#919191" d="M32,27H6a1,1,0,0,1,0-2H32A1,1,0,0,1,32,27Z"/><path fill="#919191" d="M32,31H6a1,1,0,0,1,0-2H32A1,1,0,0,1,32,31Z"/><path fill="#919191" d="M32,35H6a1,1,0,0,1,0-2H32A1,1,0,0,1,32,35Z"/><path fill="#edebf2" d="M5,6A1,1,0,0,1,4,5,1,1,0,1,1,5,6Z"/><path fill="#edebf2" d="M9,6A1,1,0,0,1,8,5,1,1,0,1,1,9,6Z"/><path fill="#edebf2" d="M13,6a1,1,0,0,1-1-1,1,1,0,1,1,1,1Z"/><path d="M47,0H1A1,1,0,0,0,0,1V39a1,1,0,0,0,1,1H35c0,2.87-.63,1.24,3.16,7.52A1,1,0,0,0,39,48c.75,0,.6-.07,3.84-5.49.18-.3.14-.46.14-2.51h4a1,1,0,0,0,1-1V1A1,1,0,0,0,47,0ZM2,2H46V8H2ZM37,21h4V41H37Zm4-2H37V17a2,2,0,0,1,4,0ZM39,45.06,37.77,43h2.47ZM46,38H43V17a4,4,0,0,0-8,0V38H2V10H46Z"/><path d="M5.71,4.29A1,1,0,1,0,5,6,1,1,0,0,0,5.71,4.29Z"/><path d="M9.71,4.29A1,1,0,1,0,9,6,1,1,0,0,0,9.71,4.29Z"/><path d="M13.71,4.29A1,1,0,1,0,13,6,1,1,0,0,0,13.71,4.29Z"/><path d="M6,23H20a1,1,0,0,0,1-1V14a1,1,0,0,0-1-1H6a1,1,0,0,0-1,1v8A1,1,0,0,0,6,23Zm1-8H19v6H7Z"/><path d="M24,17h8a1,1,0,0,0,0-2H24A1,1,0,0,0,24,17Z"/><path d="M24,21h8a1,1,0,0,0,0-2H24A1,1,0,0,0,24,21Z"/><path d="M6,27H32a1,1,0,0,0,0-2H6A1,1,0,0,0,6,27Z"/><path d="M6,31H32a1,1,0,0,0,0-2H6A1,1,0,0,0,6,31Z"/><path d="M6,35H32a1,1,0,0,0,0-2H6A1,1,0,0,0,6,35Z"/></g></svg>