<svg xmlns="http://www.w3.org/2000/svg"  viewBox="0 0 64 64" width="64px" height="64px"><path fill="#bddbff" d="M3,11V53H61V11ZM57,43a13.987,13.987,0,0,0-25-8.65,13.109,13.109,0,0,0-1.1-1.25A14,14,0,0,0,7,43V15H57Z"/><path fill="#57a4ff" d="M61,10H3a1,1,0,0,0-1,1V53a1,1,0,0,0,1,1H61a1,1,0,0,0,1-1V11A1,1,0,0,0,61,10ZM60,52H4V12H60Z"/><path fill="#57a4ff" d="M57,14H7a1,1,0,0,0-1,1V49a1,1,0,0,0,1,1H57a1,1,0,0,0,1-1V15A1,1,0,0,0,57,14ZM34,48H8V43a13,13,0,0,1,26,0ZM26.11,28.91a5.989,5.989,0,0,1,11.78-.01A14.759,14.759,0,0,0,32,32.84,15.088,15.088,0,0,0,26.11,28.91ZM56,48H36V43a14.9,14.9,0,0,0-2.72-8.59A12.983,12.983,0,0,1,56,43Zm0-12.46a15.4,15.4,0,0,0-2.39-3.15A14.96,14.96,0,0,0,43,28a14.709,14.709,0,0,0-3.19.35,7.978,7.978,0,0,0-15.62,0A14.64,14.64,0,0,0,21,28,15,15,0,0,0,8,35.55V16H56Z"/><rect width="2" height="2" x="31" y="18" fill="#57a4ff"/><rect width="2" height="2" x="25.5" y="19.473" fill="#57a4ff" transform="rotate(-29.995 26.5 20.473)"/><rect width="2" height="2" x="21.474" y="23.5" fill="#57a4ff" transform="rotate(-59.998 22.474 24.5)"/><rect width="2" height="2" x="40.526" y="23.5" fill="#57a4ff" transform="rotate(-29.995 41.525 24.5)"/><rect width="2" height="2" x="36.5" y="19.473" fill="#57a4ff" transform="rotate(-60.005 37.5 20.474)"/></svg>